# xmcd
#
# Track frame offsets:
#	150
#	14685
#	29099
#	43754
#
# Disc length: 777 seconds
#
# Revision: 0
# Processed by: cddbd v1.5.1PL2 Copyright (c) Steve Scherf et al.
# Submitted via: EasyCDDAExtractor 9.0.0.1
#
DISCID=33030704
DTITLE=Wide Screen Mode - Hello World
DYEAR=2004
DGENRE=Rock and Roll
TTITLE0=Not Alright
TTITLE1=Again
TTITLE2=She's Lying
TTITLE3=Last 1 Standing
EXTD=YEAR: 2003\n
EXTT0=
EXTT1=
EXTT2=
EXTT3=
PLAYORDER=
